<?xml version="1.0" encoding="UTF-8"?>
<svg version="1.1" viewBox="0 0 2048 2048" width="512" height="512" xmlns="http://www.w3.org/2000/svg">
<path transform="translate(1014,102)" d="m0 0h26l33 1 68 4 42 4 25 4 32 8 28 10 24 11 22 12 16 11 13 10 11 9 6 5v2l4 2 8 8 18 22 13 20 9 17 8 20 6 20 4 21 1 7v30l-8 47-2 14-1 71 13 1 17 4 19 7 12 7 7 6 6 10 3 14v28l-3 7-4 4-11-1-20-9-21-10-18-8 1 1073 5 34 5 29v30l-5 28-7 23-10 23-11 19-13 18-13 15-19 19-10 8-16 12-25 15-19 10-27 11-26 8-26 6-26 4-46 4-50 3-21 1h-71l-58-3-69-5-29-4-22-5-24-7-25-10-21-10-20-12-17-12-13-11-10-9-13-13-9-11-11-15-11-18-10-21-9-27-5-25-2-17v-17l10-61 1-8 1-1070-21 9-29 14-11 3-6-1-5-5-2-10v-12l2-20 4-10 9-10 10-6 10-5 20-6 18-4v-66l-4-28-7-42v-19l4-27 6-24 10-25 8-16 11-17 12-16 9-10 7-8 4-2v-2l8-7 12-10 17-12 18-11 21-11 25-10 26-8 22-5 27-4 38-3 45-3 41-2z" fill="#359FDA"/>
<path transform="translate(1021,504)" d="m0 0h18l28 1 49 4 39 5 41 7 36 8 38 10 49 16 36 14 6 4 1 9v28l-6 41-9 41-14 51-16 56-13 47-8 33-5 24-5 1-24-9-36-12-28-8-37-8-38-6-27-3-39-2h-55l-38 2-36 4-33 5-42 8-35 8-40 11-21 6h-7l-12-47-16-56-20-75-7-28-7-33-4-25-3-27v-25l1-8 8-5 23-10 40-14 33-10 30-8 42-9 41-7 33-4 36-3 17-1z" fill="#023850"/>
<path transform="translate(1288,1309)" d="m0 0h3l7 48 4 32 3 34 2 30v56l-2 45-1 13-2 5-39 20-17 8-19 8-24 9-28 9-27 7-27 6-34 5-31 3-21 1h-22l-33-2-35-4-42-8-30-8-26-8-29-11-25-11-21-10-22-12-9-6-2-7-2-32-1-35v-80l3-34 6-40 5-26 4-1 47 13 37 9 32 7 41 7 40 5 36 3 19 1h52l52-4 42-6 30-6 36-9 38-12z" fill="#023850"/>
<path transform="translate(1021,504)" d="m0 0h18l28 1 49 4 39 5 41 7 36 8 38 10 49 16 36 14 6 4 1 9v28l-1 8h-1v-5l-4 1-45-12-36-8-34-6-28-4-38-4-40-2h-60l-39 2-40 4-22 3-41 7-28 6-17 4-43 12-15 5-10 3-19 7-30 12-9 4-1 4v17l2 26 5 38 6 31 4 16v4l-51-1-7-2v-3l-3 1-15-56-7-28-7-33-4-25-3-27v-25l1-8 8-5 23-10 40-14 33-10 30-8 42-9 41-7 33-4 36-3 17-1z" fill="#094866"/>
<path transform="translate(736,1414)" d="m0 0h1l1 71 25-6 10-2h7l7 4 5 4 18 10 6 4 30 15 17 8 15 6 17 6 8 3 24 7 21 5 29 5 26 3h41l36-4 27-5 28-7 17-6 19-7 12-5 32-16 20-11 16-10 13-8 7-3 9 1 10 2 16 3 1-2v30l-2 45-1 13-2 5-39 20-17 8-19 8-24 9-28 9-27 7-27 6-34 5-31 3-21 1h-22l-33-2-35-4-42-8-30-8-26-8-29-11-25-11-21-10-22-12-9-6-2-7-2-32-1-35z" fill="#094866"/>
<path transform="translate(1014,102)" d="m0 0h26l33 1 68 4 42 4 25 4 32 8 28 10 24 11 22 12 16 11 13 10 11 9 6 5v2l4 2 8 8 18 22 13 20 9 17 8 20 6 20 4 21 1 7v30l-8 47-2 3-3-38-5-26-7-24-9-21-10-19-11-16-8-11-9-10-18-18-11-9-18-13-13-8-21-11-25-10-26-8-26-5-25-3-39-3-63-3h-111l-60 3-34 3-23 3-28 6-19 6-19 7-11 5-16 8-11 6-18 12-13 10-13 11-16 16-9 11-11 15-10 17-8 16-8 20-6 21-4 21-2 23-1 19-2-4-9-54v-19l4-27 6-24 10-25 8-16 11-17 12-16 9-10 7-8 4-2v-2l8-7 12-10 17-12 18-11 21-11 25-10 26-8 22-5 27-4 38-3 45-3 41-2z" fill="#023951"/>
<path transform="translate(622,1634)" d="m0 0h1l2 55 3 22 6 25 7 20 12 25 12 19 9 12 9 11 11 12 8 7 13 11 17 12 17 10 15 8 27 11 23 7 25 5 21 3 34 3 64 4 39 2h64l73-4 44-4 35-6 23-6 25-9 20-9 17-9 19-12 17-13 12-11 11-10 7-8 8-10 10-14 9-15 8-15 11-28 6-25 2-12 1-11 2-51 2 4 8 48v30l-5 28-7 23-10 23-11 19-13 18-13 15-19 19-10 8-16 12-25 15-19 10-27 11-26 8-26 6-26 4-46 4-50 3-21 1h-71l-58-3-69-5-29-4-22-5-24-7-25-10-21-10-20-12-17-12-13-11-10-9-13-13-9-11-11-15-11-18-10-21-9-27-5-25-2-17v-17l9-55z" fill="#033A52"/>
<path transform="translate(650,603)" d="m0 0 2 3 6 26 17 84 26 128 12 59 2 16v186l-1 1-33 3-16 1h-15l-1-445v-60z" fill="#023850"/>
<path transform="translate(1392,603)" d="m0 0h1v508l-58-4-6-1-1-28v-143l1-22 4-24 17-83 11-55 16-79 13-63z" fill="#023850"/>
<path transform="translate(703,1122)" d="m0 0h11l1 16v171l-14 43-45 135-4 10-2 1-1-65v-41l1-265 18-2z" fill="#023850"/>
<path transform="translate(1329,1122)" d="m0 0 20 1 38 3 6 1 1 303-1 68-2-1-16-47-45-135-2-10v-75z" fill="#023850"/>
<path transform="translate(1265,207)" d="m0 0h29l18 5 12 5 12 7 6 3 14 14 8 16 6 13 3 17v22l-3 7-4 4-2 1h-8l-14-7-18-12-35-24-20-13-21-14-11-8-7-6-3-6v-6l6-7 15-7 11-3z" fill="#A9C3E6"/>
<path transform="translate(767,207)" d="m0 0h18l17 3 16 7 9 7 1 5-6 8-13 11-15 10-35 23-19 13-17 12-13 8-11 6-10 1-5-3-3-5-2-11 1-18 4-16 5-13 7-11 7-9 13-10 13-8 15-6 13-3z" fill="#AAC4E7"/>
<path transform="translate(717,1764)" d="m0 0 7 4 10 8 18 13 20 14 18 13 13 10 10 9 3 3-1 5-4 3-7 2h-18l-29-6-23-7-19-8-10-6-10-9-2-5v-11l7-14 9-12 5-5z" fill="#AAC4E7"/>
<path transform="translate(1325,1765)" d="m0 0h5l8 7 7 10 5 9 2 7-1 9-6 8-9 8-19 9-27 9-22 5-12 2h-20l-7-4v-6l11-11 19-14 16-12 20-14 16-12z" fill="#AAC4E7"/>
<path transform="translate(1353,253)" d="m0 0h2l-3 10-7 16-7 12-3 1-11-8-13-9-8-7-4-8-1-6h7l15 2h10l19-2z" fill="#36A0DB"/>
<path transform="translate(752,253)" d="m0 0h3l-1 6-4 9-4 5-9 6h-2v2l-13 8-3 2-4-1-8-13-6-15-2-8 25 2 21-1z" fill="#36A0DB"/>
<path transform="translate(650,603)" d="m0 0 2 3 2 7v5l-1-2h-2l1 7v74l-1 412 2 1h-3l-1-445v-60z" fill="#0A4967"/>
<path transform="translate(721,1781)" d="m0 0 5 2 11 8 7 8 3 7h-7l-16-2-20-1 1-4 9-11z" fill="#36A0DB"/>
<path transform="translate(1319,1782)" d="m0 0 5 1 9 9v2h2l7 8-2 2h-20l-17 2h-5l1-5 4-6 11-10z" fill="#36A0DB"/>
<path transform="translate(1392,603)" d="m0 0h1v508l-2-1v-494l-2 1 1-8z" fill="#0A4967"/>
<path transform="translate(650,1127)" d="m0 0h5l-4 1 1 364 1 3-3 3-1-65v-41z" fill="#0A4967"/>
<path transform="translate(906,512)" d="m0 0h13l-2 2-20 3-16 2-7 2-10 1-12 3-12 2-8 2-3-2 5-2 40-8z" fill="#033B55"/>
<path transform="translate(942,508)" d="m0 0h20l-1 2h-9l-5 1-11 1-14 1-2-2 2-1z" fill="#033B55"/>
<path transform="translate(858,520)" d="m0 0 4 1-2 2-11 3-11 1-6 2-3-2 5-2z" fill="#043D56"/>
<path transform="translate(968,506)" d="m0 0h39l-4 2h-21l-3 1-15 1v-3z" fill="#043D56"/>
<path transform="translate(874,517)" d="m0 0h8l-3 3-9 2h-9l3-3z" fill="#033A53"/>
<path transform="translate(964,507)" d="m0 0h17v2h-8l-9 1z" fill="#023850"/>
</svg>
